<svg width="24" height="24" viewBox="0 0 24 24" fill="none" xmlns="http://www.w3.org/2000/svg">
<mask id="mask0_10_146" style="mask-type:alpha" maskUnits="userSpaceOnUse" x="0" y="0" width="24" height="24">
<rect y="3.05176e-05" width="24" height="24" fill="#D9D9D9"/>
</mask>
<g mask="url(#mask0_10_146)">
<path d="M3 22C2.45 22 1.97917 21.8042 1.5875 21.4125C1.19583 21.0209 1 20.55 1 20V9.00003H3V20H20V22H3ZM7 18C6.45 18 5.97917 17.8042 5.5875 17.4125C5.19583 17.0209 5 16.55 5 16V5.00003H10V3.00003C10 2.45003 10.1958 1.9792 10.5875 1.58753C10.9792 1.19586 11.45 1.00003 12 1.00003H16C16.55 1.00003 17.0208 1.19586 17.4125 1.58753C17.8042 1.9792 18 2.45003 18 3.00003V5.00003H23V16C23 16.55 22.8042 17.0209 22.4125 17.4125C22.0208 17.8042 21.55 18 21 18H7ZM7 16H21V7.00003H7V16ZM12 5.00003H16V3.00003H12V5.00003Z" fill="#2C2E30"/>
</g>
</svg>
