<svg width="20" height="20" viewBox="0 0 20 20" fill="none" xmlns="http://www.w3.org/2000/svg">
<mask id="mask0_10_31" style="mask-type:alpha" maskUnits="userSpaceOnUse" x="0" y="0" width="20" height="20">
<rect width="20" height="20" fill="#D9D9D9"/>
</mask>
<g mask="url(#mask0_10_31)">
<path d="M10 17.5C7.91667 17.5 6.14583 16.7708 4.6875 15.3125C3.22917 13.8542 2.5 12.0833 2.5 10C2.5 7.91667 3.22917 6.14583 4.6875 4.6875C6.14583 3.22917 7.91667 2.5 10 2.5C10.1944 2.5 10.3854 2.50694 10.5729 2.52083C10.7604 2.53472 10.9444 2.55556 11.125 2.58333C10.5556 2.98611 10.1007 3.51042 9.76042 4.15625C9.42014 4.80208 9.25 5.5 9.25 6.25C9.25 7.5 9.6875 8.5625 10.5625 9.4375C11.4375 10.3125 12.5 10.75 13.75 10.75C14.5139 10.75 15.2153 10.5799 15.8542 10.2396C16.4931 9.89931 17.0139 9.44444 17.4167 8.875C17.4444 9.05556 17.4653 9.23958 17.4792 9.42708C17.4931 9.61458 17.5 9.80556 17.5 10C17.5 12.0833 16.7708 13.8542 15.3125 15.3125C13.8542 16.7708 12.0833 17.5 10 17.5ZM10 15.8333C11.2222 15.8333 12.3194 15.4965 13.2917 14.8229C14.2639 14.1493 14.9722 13.2708 15.4167 12.1875C15.1389 12.2569 14.8611 12.3125 14.5833 12.3542C14.3056 12.3958 14.0278 12.4167 13.75 12.4167C12.0417 12.4167 10.5868 11.816 9.38542 10.6146C8.18403 9.41319 7.58333 7.95833 7.58333 6.25C7.58333 5.97222 7.60417 5.69444 7.64583 5.41667C7.6875 5.13889 7.74306 4.86111 7.8125 4.58333C6.72917 5.02778 5.85069 5.73611 5.17708 6.70833C4.50347 7.68056 4.16667 8.77778 4.16667 10C4.16667 11.6111 4.73611 12.9861 5.875 14.125C7.01389 15.2639 8.38889 15.8333 10 15.8333Z" fill="#2C2E30"/>
</g>
</svg>
