<svg width="24" height="24" viewBox="0 0 24 24" fill="none" xmlns="http://www.w3.org/2000/svg">
<mask id="mask0_10_158" style="mask-type:alpha" maskUnits="userSpaceOnUse" x="0" y="0" width="24" height="24">
<rect y="3.05176e-05" width="24" height="24" fill="#D9D9D9"/>
</mask>
<g mask="url(#mask0_10_158)">
<path d="M1 20V17.2C1 16.6334 1.14583 16.1125 1.4375 15.6375C1.72917 15.1625 2.11667 14.8 2.6 14.55C3.63333 14.0334 4.68333 13.6459 5.75 13.3875C6.81667 13.1292 7.9 13 9 13C10.1 13 11.1833 13.1292 12.25 13.3875C13.3167 13.6459 14.3667 14.0334 15.4 14.55C15.8833 14.8 16.2708 15.1625 16.5625 15.6375C16.8542 16.1125 17 16.6334 17 17.2V20H1ZM19 20V17C19 16.2667 18.7958 15.5625 18.3875 14.8875C17.9792 14.2125 17.4 13.6334 16.65 13.15C17.5 13.25 18.3 13.4209 19.05 13.6625C19.8 13.9042 20.5 14.2 21.15 14.55C21.75 14.8834 22.2083 15.2542 22.525 15.6625C22.8417 16.0709 23 16.5167 23 17V20H19ZM9 12C7.9 12 6.95833 11.6084 6.175 10.825C5.39167 10.0417 5 9.10003 5 8.00003C5 6.90003 5.39167 5.95836 6.175 5.17503C6.95833 4.3917 7.9 4.00003 9 4.00003C10.1 4.00003 11.0417 4.3917 11.825 5.17503C12.6083 5.95836 13 6.90003 13 8.00003C13 9.10003 12.6083 10.0417 11.825 10.825C11.0417 11.6084 10.1 12 9 12ZM19 8.00003C19 9.10003 18.6083 10.0417 17.825 10.825C17.0417 11.6084 16.1 12 15 12C14.8167 12 14.5833 11.9792 14.3 11.9375C14.0167 11.8959 13.7833 11.85 13.6 11.8C14.05 11.2667 14.3958 10.675 14.6375 10.025C14.8792 9.37503 15 8.70003 15 8.00003C15 7.30003 14.8792 6.62503 14.6375 5.97503C14.3958 5.32503 14.05 4.73336 13.6 4.20003C13.8333 4.1167 14.0667 4.06253 14.3 4.03753C14.5333 4.01253 14.7667 4.00003 15 4.00003C16.1 4.00003 17.0417 4.3917 17.825 5.17503C18.6083 5.95836 19 6.90003 19 8.00003ZM3 18H15V17.2C15 17.0167 14.9542 16.85 14.8625 16.7C14.7708 16.55 14.65 16.4334 14.5 16.35C13.6 15.9 12.6917 15.5625 11.775 15.3375C10.8583 15.1125 9.93333 15 9 15C8.06667 15 7.14167 15.1125 6.225 15.3375C5.30833 15.5625 4.4 15.9 3.5 16.35C3.35 16.4334 3.22917 16.55 3.1375 16.7C3.04583 16.85 3 17.0167 3 17.2V18ZM9 10C9.55 10 10.0208 9.8042 10.4125 9.41253C10.8042 9.02086 11 8.55003 11 8.00003C11 7.45003 10.8042 6.9792 10.4125 6.58753C10.0208 6.19586 9.55 6.00003 9 6.00003C8.45 6.00003 7.97917 6.19586 7.5875 6.58753C7.19583 6.9792 7 7.45003 7 8.00003C7 8.55003 7.19583 9.02086 7.5875 9.41253C7.97917 9.8042 8.45 10 9 10Z" fill="#2C2E30"/>
</g>
</svg>
