<svg width="20" height="20" viewBox="0 0 20 20" fill="none" xmlns="http://www.w3.org/2000/svg">
<mask id="mask0_10_38" style="mask-type:alpha" maskUnits="userSpaceOnUse" x="0" y="0" width="20" height="20">
<rect width="20" height="20" fill="#D9D9D9"/>
</mask>
<g mask="url(#mask0_10_38)">
<path d="M3.33337 15.8333V14.1667H5.00004V8.33334C5.00004 7.18056 5.34726 6.15626 6.04171 5.26042C6.73615 4.36459 7.63893 3.77778 8.75004 3.50001V2.91667C8.75004 2.56945 8.87157 2.27431 9.11462 2.03126C9.35768 1.7882 9.65282 1.66667 10 1.66667C10.3473 1.66667 10.6424 1.7882 10.8855 2.03126C11.1285 2.27431 11.25 2.56945 11.25 2.91667V3.50001C12.3612 3.77778 13.2639 4.36459 13.9584 5.26042C14.6528 6.15626 15 7.18056 15 8.33334V14.1667H16.6667V15.8333H3.33337ZM10 18.3333C9.54171 18.3333 9.14935 18.1701 8.82296 17.8438C8.49657 17.5174 8.33337 17.125 8.33337 16.6667H11.6667C11.6667 17.125 11.5035 17.5174 11.1771 17.8438C10.8507 18.1701 10.4584 18.3333 10 18.3333ZM6.66671 14.1667H13.3334V8.33334C13.3334 7.41667 13.007 6.63195 12.3542 5.97917C11.7014 5.32639 10.9167 5.00001 10 5.00001C9.08337 5.00001 8.29865 5.32639 7.64587 5.97917C6.9931 6.63195 6.66671 7.41667 6.66671 8.33334V14.1667Z" fill="#2C2E30"/>
</g>
</svg>
