<svg width="24" height="24" viewBox="0 0 24 24" fill="none" xmlns="http://www.w3.org/2000/svg">
<mask id="mask0_10_162" style="mask-type:alpha" maskUnits="userSpaceOnUse" x="0" y="0" width="24" height="24">
<rect y="3.05176e-05" width="24" height="24" fill="#D9D9D9"/>
</mask>
<g mask="url(#mask0_10_162)">
<path d="M15 21L9 18.9L4.35 20.7C4.01667 20.8334 3.70833 20.7959 3.425 20.5875C3.14167 20.3792 3 20.1 3 19.75V5.75003C3 5.53336 3.0625 5.3417 3.1875 5.17503C3.3125 5.00836 3.48333 4.88336 3.7 4.80003L9 3.00003L15 5.10003L19.65 3.30003C19.9833 3.1667 20.2917 3.2042 20.575 3.41253C20.8583 3.62086 21 3.90003 21 4.25003V18.25C21 18.4667 20.9375 18.6584 20.8125 18.825C20.6875 18.9917 20.5167 19.1167 20.3 19.2L15 21ZM14 18.55V6.85003L10 5.45003V17.15L14 18.55ZM16 18.55L19 17.55V5.70003L16 6.85003V18.55ZM5 18.3L8 17.15V5.45003L5 6.45003V18.3Z" fill="#2C2E30"/>
</g>
</svg>
