<svg width="24" height="24" viewBox="0 0 24 24" fill="none" xmlns="http://www.w3.org/2000/svg">
<mask id="mask0_10_154" style="mask-type:alpha" maskUnits="userSpaceOnUse" x="0" y="0" width="24" height="24">
<rect y="3.05176e-05" width="24" height="24" fill="#D9D9D9"/>
</mask>
<g mask="url(#mask0_10_154)">
<path d="M18 13V11H22V13H18ZM19.2 20L16 17.6L17.2 16L20.4 18.4L19.2 20ZM17.2 8.00003L16 6.40003L19.2 4.00003L20.4 5.60003L17.2 8.00003ZM5 19V15H4C3.45 15 2.97917 14.8042 2.5875 14.4125C2.19583 14.0209 2 13.55 2 13V11C2 10.45 2.19583 9.9792 2.5875 9.58753C2.97917 9.19586 3.45 9.00003 4 9.00003H8L13 6.00003V18L8 15H7V19H5ZM11 14.45V9.55003L8.55 11H4V13H8.55L11 14.45ZM14 15.35V8.65003C14.45 9.05003 14.8125 9.53753 15.0875 10.1125C15.3625 10.6875 15.5 11.3167 15.5 12C15.5 12.6834 15.3625 13.3125 15.0875 13.8875C14.8125 14.4625 14.45 14.95 14 15.35Z" fill="#2C2E30"/>
</g>
</svg>
