<svg width="48" height="42" viewBox="0 0 48 42" fill="none" xmlns="http://www.w3.org/2000/svg">
<rect y="3.05176e-05" width="48" height="42" rx="4" fill="#2C2E30"/>
<mask id="mask0_10_142" style="mask-type:alpha" maskUnits="userSpaceOnUse" x="12" y="9" width="24" height="24">
<rect x="12" y="9.00003" width="24" height="24" fill="#D9D9D9"/>
</mask>
<g mask="url(#mask0_10_142)">
<path d="M14 28V26H24V28H14ZM14 23V21H19V23H14ZM14 18V16H19V18H14ZM32.6 28L28.75 24.15C28.35 24.4334 27.9125 24.6459 27.4375 24.7875C26.9625 24.9292 26.4833 25 26 25C24.6167 25 23.4375 24.5125 22.4625 23.5375C21.4875 22.5625 21 21.3834 21 20C21 18.6167 21.4875 17.4375 22.4625 16.4625C23.4375 15.4875 24.6167 15 26 15C27.3833 15 28.5625 15.4875 29.5375 16.4625C30.5125 17.4375 31 18.6167 31 20C31 20.4834 30.9292 20.9625 30.7875 21.4375C30.6458 21.9125 30.4333 22.35 30.15 22.75L34 26.6L32.6 28ZM26 23C26.8333 23 27.5417 22.7084 28.125 22.125C28.7083 21.5417 29 20.8334 29 20C29 19.1667 28.7083 18.4584 28.125 17.875C27.5417 17.2917 26.8333 17 26 17C25.1667 17 24.4583 17.2917 23.875 17.875C23.2917 18.4584 23 19.1667 23 20C23 20.8334 23.2917 21.5417 23.875 22.125C24.4583 22.7084 25.1667 23 26 23Z" fill="white"/>
</g>
</svg>
