<svg width="20" height="20" viewBox="0 0 20 20" fill="none" xmlns="http://www.w3.org/2000/svg">
<mask id="mask0_0_338" style="mask-type:alpha" maskUnits="userSpaceOnUse" x="0" y="0" width="20" height="20">
<rect width="20" height="20" fill="#D9D9D9"/>
</mask>
<g mask="url(#mask0_0_338)">
<path d="M9.99988 13.3333C11.0415 13.3333 11.927 12.9687 12.6561 12.2396C13.3853 11.5104 13.7499 10.625 13.7499 9.58331C13.7499 8.54165 13.3853 7.65623 12.6561 6.92706C11.927 6.1979 11.0415 5.83331 9.99988 5.83331C8.95821 5.83331 8.07279 6.1979 7.34363 6.92706C6.61446 7.65623 6.24988 8.54165 6.24988 9.58331C6.24988 10.625 6.61446 11.5104 7.34363 12.2396C8.07279 12.9687 8.95821 13.3333 9.99988 13.3333ZM9.99988 11.8333C9.37488 11.8333 8.84363 11.6146 8.40613 11.1771C7.96863 10.7396 7.74988 10.2083 7.74988 9.58331C7.74988 8.95831 7.96863 8.42706 8.40613 7.98956C8.84363 7.55206 9.37488 7.33331 9.99988 7.33331C10.6249 7.33331 11.1561 7.55206 11.5936 7.98956C12.0311 8.42706 12.2499 8.95831 12.2499 9.58331C12.2499 10.2083 12.0311 10.7396 11.5936 11.1771C11.1561 11.6146 10.6249 11.8333 9.99988 11.8333ZM9.99988 15.8333C8.13877 15.8333 6.44085 15.3333 4.90613 14.3333C3.37141 13.3333 2.1596 12.0139 1.27071 10.375C1.20127 10.25 1.14918 10.1215 1.11446 9.98956C1.07974 9.85762 1.06238 9.7222 1.06238 9.58331C1.06238 9.44442 1.07974 9.30901 1.11446 9.17706C1.14918 9.04512 1.20127 8.91665 1.27071 8.79165C2.1596 7.15276 3.37141 5.83331 4.90613 4.83331C6.44085 3.83331 8.13877 3.33331 9.99988 3.33331C11.861 3.33331 13.5589 3.83331 15.0936 4.83331C16.6283 5.83331 17.8402 7.15276 18.729 8.79165C18.7985 8.91665 18.8506 9.04512 18.8853 9.17706C18.92 9.30901 18.9374 9.44442 18.9374 9.58331C18.9374 9.7222 18.92 9.85762 18.8853 9.98956C18.8506 10.1215 18.7985 10.25 18.729 10.375C17.8402 12.0139 16.6283 13.3333 15.0936 14.3333C13.5589 15.3333 11.861 15.8333 9.99988 15.8333ZM9.99988 14.1666C11.5693 14.1666 13.0103 13.7535 14.3228 12.9271C15.6353 12.1007 16.6388 10.9861 17.3332 9.58331C16.6388 8.18053 15.6353 7.06595 14.3228 6.23956C13.0103 5.41317 11.5693 4.99998 9.99988 4.99998C8.43043 4.99998 6.98946 5.41317 5.67696 6.23956C4.36446 7.06595 3.36099 8.18053 2.66654 9.58331C3.36099 10.9861 4.36446 12.1007 5.67696 12.9271C6.98946 13.7535 8.43043 14.1666 9.99988 14.1666Z" fill="black"/>
</g>
</svg>
